<svg fill="none" height="29" viewBox="0 0 197 29" width="197" xmlns="http://www.w3.org/2000/svg"><g fill="#fff"><path d="m19.3976 7.34563v-2.40072h-17.76528v16.80499h2.88087v-5.8817h13.44401v-2.4007h-13.44401v-6.12187z"/><path d="m43.4011 13.3234v-8.37849h-2.8809v8.37849c0 2.7368-.6482 6.2659-7.6823 6.2659s-7.6823-3.5051-7.6823-6.2659v-8.37849h-2.8808v8.37849c0 5.8578 3.1689 8.6666 10.5631 8.6666 7.3702 0 10.5632-2.8328 10.5632-8.6666z"/><path d="m46.0531 16.0602c0 4.7535 4.3213 5.9298 11.2114 5.9298 5.6897 0 10.2511-.6962 10.2511-5.0895 0-4.1533-4.1053-4.4413-10.7313-4.8735-5.8097-.3841-7.1301-.8402-7.1301-2.61676 0-1.6805 1.3204-2.30469 6.53-2.30469 5.5696 0 7.7303.67221 7.7303 3.24095h2.8808c0-4.05719-3.9371-5.64167-10.131-5.64167-6.0258 0-9.891.86426-9.891 4.56137 0 3.6731 2.9049 4.7534 10.011 5.1615 6.578.3842 7.8504.6963 7.8504 2.6168 0 1.8246-1.9926 2.5448-7.1301 2.5448-6.602 0-8.5706-1.0323-8.5706-3.5291z"/><path d="m73.0518 4.94491h-2.8808v16.80499h2.8808z"/><path d="m86.2727 21.99c7.3702 0 10.5631-3.313 10.5631-8.6666 0-5.32958-3.1929-8.61857-10.5631-8.61857-7.3942 0-10.5632 3.26498-10.5632 8.61857 0 5.3776 3.169 8.6666 10.5632 8.6666zm0-2.4007c-5.1136 0-7.6823-1.5845-7.6823-6.2659 0-4.65738 2.5447-6.21785 7.6823-6.21785 5.1375 0 7.6823 1.58448 7.6823 6.21785 0 4.6574-2.5688 6.2659-7.6823 6.2659z"/><path d="m118.273 4.94491v14.04419l-14.621-14.04419h-4.1529v16.80499h2.8809v-14.04417l14.62 14.04417h4.154v-16.80499z"/><path d="m126.691 21.7501h8.162l4.226-4.8014 4.225 4.8014h8.162l-7.946-8.4025 7.946-8.40253h-8.162l-4.225 4.80144-4.226-4.80144h-8.162l7.946 8.40253z"/><path d="m160.733 16.2284v5.5217h6.242v-5.5217l8.546-11.28333h-7.202l-4.465 6.24183-4.465-6.24183h-7.203z"/><path d="m195.692 4.94507h-18.966v5.28163h10.083l-10.083 6.2418v5.2816h18.966v-5.2816h-10.083l10.083-6.2418z"/></g></svg>