<svg width="54" height="54" viewBox="0 0 54 54" fill="none" xmlns="http://www.w3.org/2000/svg">
<path d="M6.75 27L11.25 22.5M11.25 22.5L27 6.75L42.75 22.5M11.25 22.5V45C11.25 45.5967 11.4871 46.169 11.909 46.591C12.331 47.0129 12.9033 47.25 13.5 47.25H20.25M42.75 22.5L47.25 27M42.75 22.5V45C42.75 45.5967 42.5129 46.169 42.091 46.591C41.669 47.0129 41.0967 47.25 40.5 47.25H33.75M20.25 47.25C20.8467 47.25 21.419 47.0129 21.841 46.591C22.2629 46.169 22.5 45.5967 22.5 45V36C22.5 35.4033 22.7371 34.831 23.159 34.409C23.581 33.9871 24.1533 33.75 24.75 33.75H29.25C29.8467 33.75 30.419 33.9871 30.841 34.409C31.2629 34.831 31.5 35.4033 31.5 36V45C31.5 45.5967 31.7371 46.169 32.159 46.591C32.581 47.0129 33.1533 47.25 33.75 47.25M20.25 47.25H33.75" stroke="url(#paint0_linear_3118_2944)" stroke-width="2" stroke-linecap="round" stroke-linejoin="round"/>
<defs>
<linearGradient id="paint0_linear_3118_2944" x1="11.5837" y1="19.9882" x2="39.1108" y2="25.3401" gradientUnits="userSpaceOnUse">
<stop stop-color="#7F1E91"/>
<stop offset="0.949632" stop-color="#3B02FF"/>
</linearGradient>
</defs>
</svg>
