<svg width="32" height="32" viewBox="0 0 32 32" fill="none" xmlns="http://www.w3.org/2000/svg">
<path d="M16.0007 6.66699L16.7073 5.96033C16.5198 5.77306 16.2657 5.66787 16.0007 5.66787C15.7356 5.66787 15.4815 5.77306 15.294 5.96033L16.0007 6.66699ZM16.0007 17.3337L15.294 18.0403C15.4815 18.2276 15.7356 18.3328 16.0007 18.3328C16.2657 18.3328 16.5198 18.2276 16.7073 18.0403L16.0007 17.3337ZM12.6273 8.62699C12.4507 8.81656 12.3545 9.06729 12.3591 9.32636C12.3637 9.58542 12.4686 9.8326 12.6518 10.0158C12.835 10.199 13.0822 10.304 13.3413 10.3086C13.6004 10.3131 13.8511 10.217 14.0407 10.0403L12.6273 8.62699ZM17.9607 10.0403C18.0522 10.1386 18.1626 10.2174 18.2853 10.272C18.4079 10.3267 18.5403 10.3561 18.6746 10.3584C18.8089 10.3608 18.9423 10.3361 19.0668 10.2858C19.1913 10.2355 19.3044 10.1607 19.3994 10.0657C19.4943 9.97075 19.5692 9.85764 19.6195 9.73312C19.6698 9.60861 19.6945 9.47523 19.6921 9.34096C19.6897 9.20669 19.6603 9.07427 19.6057 8.95161C19.551 8.82894 19.4722 8.71854 19.374 8.62699L17.9607 10.0403ZM14.0407 13.9603C13.9491 13.8621 13.8387 13.7833 13.716 13.7286C13.5934 13.674 13.461 13.6446 13.3267 13.6422C13.1924 13.6398 13.059 13.6645 12.9345 13.7148C12.81 13.7651 12.6969 13.84 12.6019 13.9349C12.507 14.0299 12.4321 14.143 12.3818 14.2675C12.3315 14.392 12.3068 14.5254 12.3092 14.6597C12.3116 14.794 12.341 14.9264 12.3956 15.049C12.4503 15.1717 12.5291 15.2821 12.6273 15.3737L14.0407 13.9603ZM19.374 15.3737C19.4722 15.2821 19.551 15.1717 19.6057 15.049C19.6603 14.9264 19.6897 14.794 19.6921 14.6597C19.6945 14.5254 19.6698 14.392 19.6195 14.2675C19.5692 14.143 19.4943 14.0299 19.3994 13.9349C19.3044 13.84 19.1913 13.7651 19.0668 13.7148C18.9423 13.6645 18.8089 13.6398 18.6746 13.6422C18.5403 13.6446 18.4079 13.674 18.2853 13.7286C18.1626 13.7833 18.0522 13.8621 17.9607 13.9603L19.374 15.3737ZM4.33398 13.3337V18.667H6.33398V13.3337H4.33398ZM27.6673 18.667V13.3337H25.6673V18.667H27.6673ZM15.0007 6.66699V17.3337H17.0007V6.66699H15.0007ZM15.294 5.96033L12.6273 8.62699L14.0407 10.0403L16.7073 7.37366L15.294 5.96033ZM15.294 7.37366L17.9607 10.0403L19.374 8.62699L16.7073 5.96033L15.294 7.37366ZM16.7073 16.627L14.0407 13.9603L12.6273 15.3737L15.294 18.0403L16.7073 16.627ZM16.7073 18.0403L19.374 15.3737L17.9607 13.9603L15.294 16.627L16.7073 18.0403ZM27.6673 13.3337C27.6673 10.2395 26.4382 7.272 24.2502 5.08408C22.0623 2.89616 19.0948 1.66699 16.0007 1.66699V3.66699C18.5644 3.66699 21.0232 4.68544 22.836 6.49829C24.6489 8.31115 25.6673 10.7699 25.6673 13.3337H27.6673ZM16.0007 30.3337C17.5327 30.3337 19.0498 30.0319 20.4653 29.4456C21.8808 28.8593 23.1669 27.9999 24.2502 26.9166C25.3336 25.8332 26.1929 24.5471 26.7792 23.1316C27.3655 21.7162 27.6673 20.1991 27.6673 18.667H25.6673C25.6673 21.2308 24.6489 23.6895 22.836 25.5024C21.0232 27.3152 18.5644 28.3337 16.0007 28.3337V30.3337ZM4.33398 18.667C4.33398 21.7612 5.56315 24.7286 7.75107 26.9166C9.939 29.1045 12.9065 30.3337 16.0007 30.3337V28.3337C13.4369 28.3337 10.9781 27.3152 9.16529 25.5024C7.35243 23.6895 6.33398 21.2308 6.33398 18.667H4.33398ZM6.33398 13.3337C6.33398 10.7699 7.35243 8.31115 9.16529 6.49829C10.9781 4.68544 13.4369 3.66699 16.0007 3.66699V1.66699C12.9065 1.66699 9.939 2.89616 7.75107 5.08408C5.56315 7.272 4.33398 10.2395 4.33398 13.3337H6.33398Z" fill="white"/>
</svg>
