<svg width="722" height="967" viewBox="0 0 722 967" fill="none" xmlns="http://www.w3.org/2000/svg">
<g filter="url(#filter0_f_1862_11100)">
<mask id="path-1-outside-1_1862_11100" maskUnits="userSpaceOnUse" x="15" y="15" width="692" height="937" fill="black">
<rect fill="white" x="15" y="15" width="692" height="937"/>
<path fill-rule="evenodd" clip-rule="evenodd" d="M84 17H81C45.6538 17 17 45.6538 17 81V886C17 921.346 45.6538 950 81 950H641C676.346 950 705 921.346 705 886V81C705 45.6538 676.346 17 641 17H638V19H641C675.242 19 703 46.7584 703 81V886C703 920.242 675.242 948 641 948H81C46.7583 948 19 920.242 19 886V81C19 46.7584 46.7583 19 81 19H84V17Z"/>
</mask>
<path fill-rule="evenodd" clip-rule="evenodd" d="M84 17H81C45.6538 17 17 45.6538 17 81V886C17 921.346 45.6538 950 81 950H641C676.346 950 705 921.346 705 886V81C705 45.6538 676.346 17 641 17H638V19H641C675.242 19 703 46.7584 703 81V886C703 920.242 675.242 948 641 948H81C46.7583 948 19 920.242 19 886V81C19 46.7584 46.7583 19 81 19H84V17Z" fill="white"/>
<path d="M84 17H86V15H84V17ZM638 17V15H636V17H638ZM638 19H636V21H638V19ZM84 19V21H86V19H84ZM84 15H81V19H84V15ZM81 15C44.5492 15 15 44.5492 15 81H19C19 46.7584 46.7583 19 81 19V15ZM15 81V886H19V81H15ZM15 886C15 922.451 44.5492 952 81 952V948C46.7583 948 19 920.242 19 886H15ZM81 952H641V948H81V952ZM641 952C677.451 952 707 922.451 707 886H703C703 920.242 675.242 948 641 948V952ZM707 886V81H703V886H707ZM707 81C707 44.5492 677.451 15 641 15V19C675.242 19 703 46.7583 703 81H707ZM641 15H638V19H641V15ZM636 17V19H640V17H636ZM641 17H638V21H641V17ZM705 81C705 45.6538 676.346 17 641 17V21C674.137 21 701 47.8629 701 81H705ZM705 886V81H701V886H705ZM641 950C676.346 950 705 921.346 705 886H701C701 919.137 674.137 946 641 946V950ZM81 950H641V946H81V950ZM17 886C17 921.346 45.6538 950 81 950V946C47.8629 946 21 919.137 21 886H17ZM17 81V886H21V81H17ZM81 17C45.6538 17 17 45.6538 17 81H21C21 47.8629 47.8629 21 81 21V17ZM84 17H81V21H84V17ZM86 19V17H82V19H86Z" fill="#8C1DFF" mask="url(#path-1-outside-1_1862_11100)"/>
</g>
<g filter="url(#filter1_f_1862_11100)">
<mask id="path-3-outside-2_1862_11100" maskUnits="userSpaceOnUse" x="15" y="15" width="692" height="937" fill="black">
<rect fill="white" x="15" y="15" width="692" height="937"/>
<path fill-rule="evenodd" clip-rule="evenodd" d="M84 17H81C45.6538 17 17 45.6538 17 81V886C17 921.346 45.6538 950 81 950H641C676.346 950 705 921.346 705 886V81C705 45.6538 676.346 17 641 17H638V19H641C675.242 19 703 46.7584 703 81V886C703 920.242 675.242 948 641 948H81C46.7583 948 19 920.242 19 886V81C19 46.7584 46.7583 19 81 19H84V17Z"/>
</mask>
<path fill-rule="evenodd" clip-rule="evenodd" d="M84 17H81C45.6538 17 17 45.6538 17 81V886C17 921.346 45.6538 950 81 950H641C676.346 950 705 921.346 705 886V81C705 45.6538 676.346 17 641 17H638V19H641C675.242 19 703 46.7584 703 81V886C703 920.242 675.242 948 641 948H81C46.7583 948 19 920.242 19 886V81C19 46.7584 46.7583 19 81 19H84V17Z" fill="white"/>
<path d="M84 17H86V15H84V17ZM638 17V15H636V17H638ZM638 19H636V21H638V19ZM84 19V21H86V19H84ZM84 15H81V19H84V15ZM81 15C44.5492 15 15 44.5492 15 81H19C19 46.7584 46.7583 19 81 19V15ZM15 81V886H19V81H15ZM15 886C15 922.451 44.5492 952 81 952V948C46.7583 948 19 920.242 19 886H15ZM81 952H641V948H81V952ZM641 952C677.451 952 707 922.451 707 886H703C703 920.242 675.242 948 641 948V952ZM707 886V81H703V886H707ZM707 81C707 44.5492 677.451 15 641 15V19C675.242 19 703 46.7583 703 81H707ZM641 15H638V19H641V15ZM636 17V19H640V17H636ZM641 17H638V21H641V17ZM705 81C705 45.6538 676.346 17 641 17V21C674.137 21 701 47.8629 701 81H705ZM705 886V81H701V886H705ZM641 950C676.346 950 705 921.346 705 886H701C701 919.137 674.137 946 641 946V950ZM81 950H641V946H81V950ZM17 886C17 921.346 45.6538 950 81 950V946C47.8629 946 21 919.137 21 886H17ZM17 81V886H21V81H17ZM81 17C45.6538 17 17 45.6538 17 81H21C21 47.8629 47.8629 21 81 21V17ZM84 17H81V21H84V17ZM86 19V17H82V19H86Z" fill="#B536FF" mask="url(#path-3-outside-2_1862_11100)"/>
</g>
<g filter="url(#filter2_f_1862_11100)">
<mask id="path-5-outside-3_1862_11100" maskUnits="userSpaceOnUse" x="16" y="16" width="690" height="935" fill="black">
<rect fill="white" x="16" y="16" width="690" height="935"/>
<path fill-rule="evenodd" clip-rule="evenodd" d="M84 17H81C45.6538 17 17 45.6538 17 81V886C17 921.346 45.6538 950 81 950H641C676.346 950 705 921.346 705 886V81C705 45.6538 676.346 17 641 17H638V18.5H641C675.518 18.5 703.5 46.4822 703.5 81V886C703.5 920.518 675.518 948.5 641 948.5H81C46.4822 948.5 18.5 920.518 18.5 886V81C18.5 46.4822 46.4822 18.5 81 18.5H84V17Z"/>
</mask>
<path fill-rule="evenodd" clip-rule="evenodd" d="M84 17H81C45.6538 17 17 45.6538 17 81V886C17 921.346 45.6538 950 81 950H641C676.346 950 705 921.346 705 886V81C705 45.6538 676.346 17 641 17H638V18.5H641C675.518 18.5 703.5 46.4822 703.5 81V886C703.5 920.518 675.518 948.5 641 948.5H81C46.4822 948.5 18.5 920.518 18.5 886V81C18.5 46.4822 46.4822 18.5 81 18.5H84V17Z" fill="white"/>
<path d="M84 17H85V16H84V17ZM638 17V16H637V17H638ZM638 18.5H637V19.5H638V18.5ZM84 18.5V19.5H85V18.5H84ZM84 16H81V18H84V16ZM81 16C45.1015 16 16 45.1015 16 81H18C18 46.2061 46.2061 18 81 18V16ZM16 81V886H18V81H16ZM16 886C16 921.898 45.1015 951 81 951V949C46.2061 949 18 920.794 18 886H16ZM81 951H641V949H81V951ZM641 951C676.899 951 706 921.898 706 886H704C704 920.794 675.794 949 641 949V951ZM706 886V81H704V886H706ZM706 81C706 45.1015 676.899 16 641 16V18C675.794 18 704 46.2061 704 81H706ZM641 16H638V18H641V16ZM637 17V18.5H639V17H637ZM641 17.5H638V19.5H641V17.5ZM704.5 81C704.5 45.9299 676.07 17.5 641 17.5V19.5C674.966 19.5 702.5 47.0345 702.5 81H704.5ZM704.5 886V81H702.5V886H704.5ZM641 949.5C676.07 949.5 704.5 921.07 704.5 886H702.5C702.5 919.965 674.966 947.5 641 947.5V949.5ZM81 949.5H641V947.5H81V949.5ZM17.5 886C17.5 921.07 45.9299 949.5 81 949.5V947.5C47.0345 947.5 19.5 919.966 19.5 886H17.5ZM17.5 81V886H19.5V81H17.5ZM81 17.5C45.9299 17.5 17.5 45.9299 17.5 81H19.5C19.5 47.0345 47.0345 19.5 81 19.5V17.5ZM84 17.5H81V19.5H84V17.5ZM85 18.5V17H83V18.5H85Z" fill="#B536FF" mask="url(#path-5-outside-3_1862_11100)"/>
</g>
<path fill-rule="evenodd" clip-rule="evenodd" d="M84 17H81C45.6538 17 17 45.6538 17 81V886C17 921.346 45.6538 950 81 950H641C676.346 950 705 921.346 705 886V81C705 45.6538 676.346 17 641 17H638V19H641C675.242 19 703 46.7584 703 81V886C703 920.242 675.242 948 641 948H81C46.7583 948 19 920.242 19 886V81C19 46.7584 46.7583 19 81 19H84V17Z" fill="white"/>
<defs>
<filter id="filter0_f_1862_11100" x="0" y="0" width="722" height="967" filterUnits="userSpaceOnUse" color-interpolation-filters="sRGB">
<feFlood flood-opacity="0" result="BackgroundImageFix"/>
<feBlend mode="normal" in="SourceGraphic" in2="BackgroundImageFix" result="shape"/>
<feGaussianBlur stdDeviation="7.5" result="effect1_foregroundBlur_1862_11100"/>
</filter>
<filter id="filter1_f_1862_11100" x="8" y="8" width="706" height="951" filterUnits="userSpaceOnUse" color-interpolation-filters="sRGB">
<feFlood flood-opacity="0" result="BackgroundImageFix"/>
<feBlend mode="normal" in="SourceGraphic" in2="BackgroundImageFix" result="shape"/>
<feGaussianBlur stdDeviation="3.5" result="effect1_foregroundBlur_1862_11100"/>
</filter>
<filter id="filter2_f_1862_11100" x="14" y="14" width="694" height="939" filterUnits="userSpaceOnUse" color-interpolation-filters="sRGB">
<feFlood flood-opacity="0" result="BackgroundImageFix"/>
<feBlend mode="normal" in="SourceGraphic" in2="BackgroundImageFix" result="shape"/>
<feGaussianBlur stdDeviation="1" result="effect1_foregroundBlur_1862_11100"/>
</filter>
</defs>
</svg>
