<svg width="1445" height="793" viewBox="0 0 1445 793" fill="none" xmlns="http://www.w3.org/2000/svg">
<g filter="url(#filter0_f_3488_17299)">
<mask id="path-1-outside-1_3488_17299" maskUnits="userSpaceOnUse" x="15" y="15" width="1415" height="763" fill="black">
<rect fill="white" x="15" y="15" width="1415" height="763"/>
<path fill-rule="evenodd" clip-rule="evenodd" d="M310 17H81C45.6538 17 17 45.6538 17 81V712C17 747.346 45.6537 776 81 776H1364C1399.35 776 1428 747.346 1428 712V81C1428 45.6538 1399.35 17 1364 17H1135V19H1364C1398.24 19 1426 46.7583 1426 81V712C1426 746.242 1398.24 774 1364 774H81C46.7583 774 19 746.242 19 712V81C19 46.7584 46.7583 19 81 19H310V17Z"/>
</mask>
<path fill-rule="evenodd" clip-rule="evenodd" d="M310 17H81C45.6538 17 17 45.6538 17 81V712C17 747.346 45.6537 776 81 776H1364C1399.35 776 1428 747.346 1428 712V81C1428 45.6538 1399.35 17 1364 17H1135V19H1364C1398.24 19 1426 46.7583 1426 81V712C1426 746.242 1398.24 774 1364 774H81C46.7583 774 19 746.242 19 712V81C19 46.7584 46.7583 19 81 19H310V17Z" fill="white"/>
<path d="M310 17H312V15H310V17ZM1135 17V15H1133V17H1135ZM1135 19H1133V21H1135V19ZM310 19V21H312V19H310ZM310 15H81V19H310V15ZM81 15C44.5492 15 15 44.5492 15 81H19C19 46.7584 46.7583 19 81 19V15ZM15 81V712H19V81H15ZM15 712C15 748.451 44.5492 778 81 778V774C46.7583 774 19 746.242 19 712H15ZM81 778H1364V774H81V778ZM1364 778C1400.45 778 1430 748.451 1430 712H1426C1426 746.242 1398.24 774 1364 774V778ZM1430 712V81H1426V712H1430ZM1430 81C1430 44.5492 1400.45 15 1364 15V19C1398.24 19 1426 46.7583 1426 81H1430ZM1364 15H1135V19H1364V15ZM1133 17V19H1137V17H1133ZM1364 17H1135V21H1364V17ZM1428 81C1428 45.6538 1399.35 17 1364 17V21C1397.14 21 1424 47.8629 1424 81H1428ZM1428 712V81H1424V712H1428ZM1364 776C1399.35 776 1428 747.346 1428 712H1424C1424 745.137 1397.14 772 1364 772V776ZM81 776H1364V772H81V776ZM17 712C17 747.346 45.6537 776 81 776V772C47.8629 772 21 745.137 21 712H17ZM17 81V712H21V81H17ZM81 17C45.6538 17 17 45.6538 17 81H21C21 47.8629 47.8629 21 81 21V17ZM310 17H81V21H310V17ZM312 19V17H308V19H312Z" fill="#8C1DFF" mask="url(#path-1-outside-1_3488_17299)"/>
</g>
<g filter="url(#filter1_f_3488_17299)">
<mask id="path-3-outside-2_3488_17299" maskUnits="userSpaceOnUse" x="15" y="15" width="1415" height="763" fill="black">
<rect fill="white" x="15" y="15" width="1415" height="763"/>
<path fill-rule="evenodd" clip-rule="evenodd" d="M310 17H81C45.6538 17 17 45.6538 17 81V712C17 747.346 45.6537 776 81 776H1364C1399.35 776 1428 747.346 1428 712V81C1428 45.6538 1399.35 17 1364 17H1135V19H1364C1398.24 19 1426 46.7583 1426 81V712C1426 746.242 1398.24 774 1364 774H81C46.7583 774 19 746.242 19 712V81C19 46.7584 46.7583 19 81 19H310V17Z"/>
</mask>
<path fill-rule="evenodd" clip-rule="evenodd" d="M310 17H81C45.6538 17 17 45.6538 17 81V712C17 747.346 45.6537 776 81 776H1364C1399.35 776 1428 747.346 1428 712V81C1428 45.6538 1399.35 17 1364 17H1135V19H1364C1398.24 19 1426 46.7583 1426 81V712C1426 746.242 1398.24 774 1364 774H81C46.7583 774 19 746.242 19 712V81C19 46.7584 46.7583 19 81 19H310V17Z" fill="white"/>
<path d="M310 17H312V15H310V17ZM1135 17V15H1133V17H1135ZM1135 19H1133V21H1135V19ZM310 19V21H312V19H310ZM310 15H81V19H310V15ZM81 15C44.5492 15 15 44.5492 15 81H19C19 46.7584 46.7583 19 81 19V15ZM15 81V712H19V81H15ZM15 712C15 748.451 44.5492 778 81 778V774C46.7583 774 19 746.242 19 712H15ZM81 778H1364V774H81V778ZM1364 778C1400.45 778 1430 748.451 1430 712H1426C1426 746.242 1398.24 774 1364 774V778ZM1430 712V81H1426V712H1430ZM1430 81C1430 44.5492 1400.45 15 1364 15V19C1398.24 19 1426 46.7583 1426 81H1430ZM1364 15H1135V19H1364V15ZM1133 17V19H1137V17H1133ZM1364 17H1135V21H1364V17ZM1428 81C1428 45.6538 1399.35 17 1364 17V21C1397.14 21 1424 47.8629 1424 81H1428ZM1428 712V81H1424V712H1428ZM1364 776C1399.35 776 1428 747.346 1428 712H1424C1424 745.137 1397.14 772 1364 772V776ZM81 776H1364V772H81V776ZM17 712C17 747.346 45.6537 776 81 776V772C47.8629 772 21 745.137 21 712H17ZM17 81V712H21V81H17ZM81 17C45.6538 17 17 45.6538 17 81H21C21 47.8629 47.8629 21 81 21V17ZM310 17H81V21H310V17ZM312 19V17H308V19H312Z" fill="#B536FF" mask="url(#path-3-outside-2_3488_17299)"/>
</g>
<g filter="url(#filter2_f_3488_17299)">
<mask id="path-5-outside-3_3488_17299" maskUnits="userSpaceOnUse" x="16" y="16" width="1413" height="761" fill="black">
<rect fill="white" x="16" y="16" width="1413" height="761"/>
<path fill-rule="evenodd" clip-rule="evenodd" d="M310 17H81C45.6538 17 17 45.6538 17 81V712C17 747.346 45.6537 776 81 776H1364C1399.35 776 1428 747.346 1428 712V81C1428 45.6538 1399.35 17 1364 17H1135V18.5H1364C1398.52 18.5 1426.5 46.4822 1426.5 81V712C1426.5 746.518 1398.52 774.5 1364 774.5H81C46.4822 774.5 18.5 746.518 18.5 712V81C18.5 46.4822 46.4822 18.5 81 18.5H310V17Z"/>
</mask>
<path fill-rule="evenodd" clip-rule="evenodd" d="M310 17H81C45.6538 17 17 45.6538 17 81V712C17 747.346 45.6537 776 81 776H1364C1399.35 776 1428 747.346 1428 712V81C1428 45.6538 1399.35 17 1364 17H1135V18.5H1364C1398.52 18.5 1426.5 46.4822 1426.5 81V712C1426.5 746.518 1398.52 774.5 1364 774.5H81C46.4822 774.5 18.5 746.518 18.5 712V81C18.5 46.4822 46.4822 18.5 81 18.5H310V17Z" fill="white"/>
<path d="M310 17H311V16H310V17ZM1135 17V16H1134V17H1135ZM1135 18.5H1134V19.5H1135V18.5ZM310 18.5V19.5H311V18.5H310ZM310 16H81V18H310V16ZM81 16C45.1015 16 16 45.1015 16 81H18C18 46.2061 46.2061 18 81 18V16ZM16 81V712H18V81H16ZM16 712C16 747.899 45.1015 777 81 777V775C46.206 775 18 746.794 18 712H16ZM81 777H1364V775H81V777ZM1364 777C1399.9 777 1429 747.898 1429 712H1427C1427 746.794 1398.79 775 1364 775V777ZM1429 712V81H1427V712H1429ZM1429 81C1429 45.1015 1399.9 16 1364 16V18C1398.79 18 1427 46.2061 1427 81H1429ZM1364 16H1135V18H1364V16ZM1134 17V18.5H1136V17H1134ZM1364 17.5H1135V19.5H1364V17.5ZM1427.5 81C1427.5 45.9299 1399.07 17.5 1364 17.5V19.5C1397.97 19.5 1425.5 47.0345 1425.5 81H1427.5ZM1427.5 712V81H1425.5V712H1427.5ZM1364 775.5C1399.07 775.5 1427.5 747.07 1427.5 712H1425.5C1425.5 745.965 1397.97 773.5 1364 773.5V775.5ZM81 775.5H1364V773.5H81V775.5ZM17.5 712C17.5 747.07 45.9299 775.5 81 775.5V773.5C47.0345 773.5 19.5 745.966 19.5 712H17.5ZM17.5 81V712H19.5V81H17.5ZM81 17.5C45.9299 17.5 17.5 45.9299 17.5 81H19.5C19.5 47.0345 47.0345 19.5 81 19.5V17.5ZM310 17.5H81V19.5H310V17.5ZM311 18.5V17H309V18.5H311Z" fill="#B536FF" mask="url(#path-5-outside-3_3488_17299)"/>
</g>
<path fill-rule="evenodd" clip-rule="evenodd" d="M310 17H81C45.6538 17 17 45.6538 17 81V712C17 747.346 45.6537 776 81 776H1364C1399.35 776 1428 747.346 1428 712V81C1428 45.6538 1399.35 17 1364 17H1135V19H1364C1398.24 19 1426 46.7583 1426 81V712C1426 746.242 1398.24 774 1364 774H81C46.7583 774 19 746.242 19 712V81C19 46.7584 46.7583 19 81 19H310V17Z" fill="white"/>
<defs>
<filter id="filter0_f_3488_17299" x="0" y="0" width="1445" height="793" filterUnits="userSpaceOnUse" color-interpolation-filters="sRGB">
<feFlood flood-opacity="0" result="BackgroundImageFix"/>
<feBlend mode="normal" in="SourceGraphic" in2="BackgroundImageFix" result="shape"/>
<feGaussianBlur stdDeviation="7.5" result="effect1_foregroundBlur_3488_17299"/>
</filter>
<filter id="filter1_f_3488_17299" x="8" y="8" width="1429" height="777" filterUnits="userSpaceOnUse" color-interpolation-filters="sRGB">
<feFlood flood-opacity="0" result="BackgroundImageFix"/>
<feBlend mode="normal" in="SourceGraphic" in2="BackgroundImageFix" result="shape"/>
<feGaussianBlur stdDeviation="3.5" result="effect1_foregroundBlur_3488_17299"/>
</filter>
<filter id="filter2_f_3488_17299" x="14" y="14" width="1417" height="765" filterUnits="userSpaceOnUse" color-interpolation-filters="sRGB">
<feFlood flood-opacity="0" result="BackgroundImageFix"/>
<feBlend mode="normal" in="SourceGraphic" in2="BackgroundImageFix" result="shape"/>
<feGaussianBlur stdDeviation="1" result="effect1_foregroundBlur_3488_17299"/>
</filter>
</defs>
</svg>
