<svg width="1936" height="648" viewBox="0 0 1936 648" fill="none" xmlns="http://www.w3.org/2000/svg">
<g clip-path="url(#clip0_3109_14607)">
<g filter="url(#filter0_f_3109_14607)">
<mask id="path-1-outside-1_3109_14607" maskUnits="userSpaceOnUse" x="-15" y="227" width="1963" height="216" fill="black">
<rect fill="white" x="-15" y="227" width="1963" height="216"/>
<path fill-rule="evenodd" clip-rule="evenodd" d="M316 257.5C316 259.716 316.437 261.831 317.23 263.761L1.09524 424.217C0.110278 424.716 -0.282926 425.92 0.216995 426.905C0.716916 427.89 1.92065 428.283 2.90562 427.783L319.19 267.253C322.193 271.344 327.036 274 332.5 274C340.657 274 347.431 268.082 348.763 260.305L737.162 267.821C738.29 275.835 745.175 282 753.5 282C761.606 282 768.346 276.156 769.737 268.451L978.849 272.497L1177.16 298.81C1178.28 306.829 1185.17 313 1193.5 313C1200.31 313 1206.15 308.877 1208.67 302.992L1608.01 355.976C1608.26 364.869 1615.55 372 1624.5 372C1631.96 372 1638.26 367.053 1640.3 360.262L1645.64 360.97L1931.04 427.947C1932.12 428.199 1933.2 427.532 1933.45 426.457C1933.7 425.382 1933.03 424.305 1931.96 424.053L1646.46 357.053L1646.36 357.03L1646.26 357.017L1640.98 356.316C1640.99 356.046 1641 355.774 1641 355.5C1641 346.387 1633.61 339 1624.5 339C1616.59 339 1609.98 344.564 1608.37 351.99L1209.8 299.105C1209.93 298.257 1210 297.386 1210 296.5C1210 287.387 1202.61 280 1193.5 280C1184.97 280 1177.96 286.468 1177.09 294.766L979.263 268.517L979.152 268.503L979.039 268.5L769.968 264.455C769.429 255.829 762.262 249 753.5 249C744.955 249 737.927 255.496 737.085 263.819L348.958 256.308C348.347 247.752 341.212 241 332.5 241C323.388 241 316 248.387 316 257.5Z"/>
</mask>
<path fill-rule="evenodd" clip-rule="evenodd" d="M316 257.5C316 259.716 316.437 261.831 317.23 263.761L1.09524 424.217C0.110278 424.716 -0.282926 425.92 0.216995 426.905C0.716916 427.89 1.92065 428.283 2.90562 427.783L319.19 267.253C322.193 271.344 327.036 274 332.5 274C340.657 274 347.431 268.082 348.763 260.305L737.162 267.821C738.29 275.835 745.175 282 753.5 282C761.606 282 768.346 276.156 769.737 268.451L978.849 272.497L1177.16 298.81C1178.28 306.829 1185.17 313 1193.5 313C1200.31 313 1206.15 308.877 1208.67 302.992L1608.01 355.976C1608.26 364.869 1615.55 372 1624.5 372C1631.96 372 1638.26 367.053 1640.3 360.262L1645.64 360.97L1931.04 427.947C1932.12 428.199 1933.2 427.532 1933.45 426.457C1933.7 425.382 1933.03 424.305 1931.96 424.053L1646.46 357.053L1646.36 357.03L1646.26 357.017L1640.98 356.316C1640.99 356.046 1641 355.774 1641 355.5C1641 346.387 1633.61 339 1624.5 339C1616.59 339 1609.98 344.564 1608.37 351.99L1209.8 299.105C1209.93 298.257 1210 297.386 1210 296.5C1210 287.387 1202.61 280 1193.5 280C1184.97 280 1177.96 286.468 1177.09 294.766L979.263 268.517L979.152 268.503L979.039 268.5L769.968 264.455C769.429 255.829 762.262 249 753.5 249C744.955 249 737.927 255.496 737.085 263.819L348.958 256.308C348.347 247.752 341.212 241 332.5 241C323.388 241 316 248.387 316 257.5Z" fill="white"/>
<path d="M317.23 263.761L323.566 276.246L335.088 270.398L330.181 258.445L317.23 263.761ZM1.09524 424.217L-5.24107 411.733L-5.2411 411.733L1.09524 424.217ZM0.216995 426.905L12.701 420.569L12.701 420.569L0.216995 426.905ZM2.90562 427.783L-3.43069 415.299L-3.43072 415.299L2.90562 427.783ZM319.19 267.253L330.476 258.969L323.447 249.392L312.853 254.768L319.19 267.253ZM348.763 260.305L349.034 246.308L336.996 246.075L334.964 257.942L348.763 260.305ZM737.162 267.821L751.026 265.869L749.362 254.054L737.433 253.823L737.162 267.821ZM769.737 268.451L770.008 254.454L758.08 254.223L755.96 265.963L769.737 268.451ZM978.849 272.497L980.69 258.619L979.909 258.515L979.12 258.5L978.849 272.497ZM1177.16 298.81L1191.03 296.868L1189.55 286.331L1179 284.932L1177.16 298.81ZM1208.67 302.992L1210.52 289.113L1199.99 287.716L1195.81 297.479L1208.67 302.992ZM1608.01 355.976L1622 355.58L1621.66 343.666L1609.85 342.098L1608.01 355.976ZM1640.3 360.262L1642.14 346.383L1630.33 344.816L1626.9 356.228L1640.3 360.262ZM1645.64 360.97L1648.84 347.34L1648.17 347.182L1647.48 347.091L1645.64 360.97ZM1931.04 427.947L1934.24 414.317L1934.24 414.317L1931.04 427.947ZM1933.45 426.457L1947.08 429.657L1947.08 429.655L1933.45 426.457ZM1931.96 424.053L1928.76 437.683L1928.76 437.683L1931.96 424.053ZM1646.46 357.053L1649.66 343.423L1649.65 343.423L1646.46 357.053ZM1646.36 357.03L1649.56 343.4L1648.89 343.243L1648.2 343.152L1646.36 357.03ZM1646.26 357.017L1648.11 343.139L1648.1 343.139L1646.26 357.017ZM1640.98 356.316L1627 355.635L1626.37 368.501L1639.14 370.195L1640.98 356.316ZM1608.37 351.99L1606.53 365.868L1619.33 367.566L1622.06 354.954L1608.37 351.99ZM1209.8 299.105L1195.97 296.911L1193.72 311.095L1207.95 312.984L1209.8 299.105ZM1177.09 294.766L1175.25 308.644L1189.52 310.538L1191.01 296.22L1177.09 294.766ZM979.263 268.517L977.422 282.396L977.422 282.396L979.263 268.517ZM979.152 268.503L980.993 254.624L980.211 254.52L979.423 254.505L979.152 268.503ZM979.039 268.5L978.768 282.498L978.768 282.498L979.039 268.5ZM769.968 264.455L755.995 265.328L756.8 278.203L769.697 278.452L769.968 264.455ZM737.085 263.819L736.814 277.816L749.715 278.066L751.014 265.228L737.085 263.819ZM348.958 256.308L334.994 257.305L335.904 270.058L348.687 270.306L348.958 256.308ZM330.181 258.445C330.069 258.172 330 257.862 330 257.5H302C302 261.571 302.806 265.489 304.279 269.078L330.181 258.445ZM7.43155 436.701L323.566 276.246L310.894 251.277L-5.24107 411.733L7.43155 436.701ZM12.701 420.569C15.7006 426.479 13.3413 433.701 7.43158 436.701L-5.2411 411.733C-13.1207 415.732 -16.2665 425.362 -12.267 433.242L12.701 420.569ZM-3.43072 415.299C2.47908 412.3 9.70153 414.659 12.701 420.569L-12.2671 433.241C-8.2677 441.121 1.36222 444.267 9.24195 440.267L-3.43072 415.299ZM312.853 254.768L-3.43069 415.299L9.24192 440.267L325.526 279.737L312.853 254.768ZM332.5 260C331.683 260 330.955 259.622 330.476 258.969L307.903 275.536C313.43 283.066 322.39 288 332.5 288V260ZM334.964 257.942C334.764 259.11 333.722 260 332.5 260V288C347.592 288 360.098 277.054 362.562 262.669L334.964 257.942ZM737.433 253.823L349.034 246.308L348.492 274.303L736.892 281.818L737.433 253.823ZM753.5 268C752.251 268 751.195 267.07 751.026 265.869L723.299 269.772C725.386 284.599 738.1 296 753.5 296V268ZM755.96 265.963C755.751 267.122 754.714 268 753.5 268V296C768.498 296 780.941 285.19 783.514 270.939L755.96 265.963ZM979.12 258.5L770.008 254.454L769.466 282.449L978.578 286.495L979.12 258.5ZM1179 284.932L980.69 258.619L977.008 286.376L1175.32 312.689L1179 284.932ZM1193.5 299C1192.25 299 1191.19 298.069 1191.03 296.868L1163.3 300.753C1165.38 315.589 1178.09 327 1193.5 327V299ZM1195.81 297.479C1195.41 298.399 1194.51 299 1193.5 299V327C1206.11 327 1216.9 319.355 1221.54 308.504L1195.81 297.479ZM1609.85 342.098L1210.52 289.113L1206.83 316.87L1606.17 369.855L1609.85 342.098ZM1624.5 358C1623.15 358 1622.04 356.919 1622 355.58L1594.01 356.373C1594.48 372.818 1607.95 386 1624.5 386V358ZM1626.9 356.228C1626.58 357.267 1625.61 358 1624.5 358V386C1638.31 386 1649.93 376.839 1653.71 364.296L1626.9 356.228ZM1647.48 347.091L1642.14 346.383L1638.46 374.14L1643.8 374.848L1647.48 347.091ZM1934.24 414.317L1648.84 347.34L1642.44 374.599L1927.85 441.577L1934.24 414.317ZM1919.82 423.257C1921.33 416.807 1927.79 412.803 1934.24 414.317L1927.84 441.577C1936.45 443.596 1945.06 438.258 1947.08 429.657L1919.82 423.257ZM1928.76 437.683C1922.31 436.169 1918.3 429.71 1919.82 423.259L1947.08 429.655C1949.1 421.053 1943.76 412.442 1935.16 410.423L1928.76 437.683ZM1643.26 370.683L1928.76 437.683L1935.16 410.423L1649.66 343.423L1643.26 370.683ZM1643.16 370.66L1643.26 370.683L1649.65 343.423L1649.56 343.4L1643.16 370.66ZM1644.42 370.896L1644.52 370.909L1648.2 343.152L1648.11 343.139L1644.42 370.896ZM1639.14 370.195L1644.42 370.896L1648.1 343.139L1642.82 342.438L1639.14 370.195ZM1627 355.5C1627 355.545 1627 355.59 1627 355.635L1654.96 356.998C1654.99 356.502 1655 356.003 1655 355.5H1627ZM1624.5 353C1625.88 353 1627 354.119 1627 355.5H1655C1655 338.655 1641.35 325 1624.5 325V353ZM1622.06 354.954C1622.3 353.833 1623.32 353 1624.5 353V325C1609.87 325 1597.67 335.294 1594.69 349.026L1622.06 354.954ZM1207.95 312.984L1606.53 365.868L1610.22 338.112L1211.64 285.227L1207.95 312.984ZM1196 296.5C1196 296.65 1195.99 296.787 1195.97 296.911L1223.62 301.299C1223.87 299.726 1224 298.123 1224 296.5H1196ZM1193.5 294C1194.88 294 1196 295.119 1196 296.5H1224C1224 279.655 1210.35 266 1193.5 266V294ZM1191.01 296.22C1191.14 294.978 1192.22 294 1193.5 294V266C1177.73 266 1164.77 277.959 1163.17 293.311L1191.01 296.22ZM977.422 282.396L1175.25 308.644L1178.93 280.887L981.105 254.639L977.422 282.396ZM977.31 282.381L977.422 282.396L981.105 254.639L980.993 254.624L977.31 282.381ZM978.768 282.498L978.881 282.5L979.423 254.505L979.31 254.503L978.768 282.498ZM769.697 278.452L978.768 282.498L979.31 254.503L770.239 250.457L769.697 278.452ZM753.5 263C754.823 263 755.914 264.034 755.995 265.328L783.941 263.582C782.943 247.624 769.701 235 753.5 235V263ZM751.014 265.228C751.14 263.982 752.214 263 753.5 263V235C737.696 235 724.715 247.009 723.156 262.409L751.014 265.228ZM348.687 270.306L736.814 277.816L737.356 249.821L349.229 242.311L348.687 270.306ZM332.5 255C333.814 255 334.902 256.022 334.994 257.305L362.923 255.312C361.793 239.481 348.61 227 332.5 227V255ZM330 257.5C330 256.119 331.12 255 332.5 255V227C315.656 227 302 240.655 302 257.5H330Z" fill="#3509CB" mask="url(#path-1-outside-1_3109_14607)"/>
</g>
<g filter="url(#filter1_f_3109_14607)">
<mask id="path-3-outside-2_3109_14607" maskUnits="userSpaceOnUse" x="-15" y="227" width="1964" height="216" fill="black">
<rect fill="white" x="-15" y="227" width="1964" height="216"/>
<path fill-rule="evenodd" clip-rule="evenodd" d="M316 257.5C316 259.562 316.379 261.537 317.07 263.357L1.09306 424.218C0.108709 424.719 -0.283024 425.923 0.2181 426.907C0.719225 427.892 1.92344 428.283 2.90779 427.782L318.935 266.896C321.914 271.189 326.879 274 332.5 274C340.655 274 347.428 268.085 348.762 260.311L737.122 267.514C738.116 275.677 745.07 282 753.5 282C761.721 282 768.538 275.988 769.794 268.12L978.849 271.998L1177.11 298.453C1178.08 306.645 1185.05 313 1193.5 313C1200.43 313 1206.36 308.731 1208.8 302.681L1608.01 355.948C1608.24 364.854 1615.54 372 1624.5 372C1631.96 372 1638.26 367.051 1640.3 360.258L1645.64 360.97L1931.54 427.947C1932.62 428.199 1933.7 427.532 1933.95 426.456C1934.2 425.381 1933.53 424.305 1932.46 424.053L1646.46 357.053L1646.36 357.03L1646.26 357.018L1640.98 356.312C1640.99 356.043 1641 355.772 1641 355.5C1641 346.387 1633.61 339 1624.5 339C1616.6 339 1610 344.55 1608.38 351.962L1209.84 298.784C1209.95 298.038 1210 297.275 1210 296.5C1210 287.387 1202.61 280 1193.5 280C1185.09 280 1178.15 286.289 1177.13 294.419L979.265 268.018L979.152 268.002L979.038 268L769.944 264.122C769.244 255.654 762.149 249 753.5 249C745.06 249 738.1 255.337 737.119 263.513L348.958 256.314C348.351 247.755 341.214 241 332.5 241C323.388 241 316 248.387 316 257.5Z"/>
</mask>
<path fill-rule="evenodd" clip-rule="evenodd" d="M316 257.5C316 259.562 316.379 261.537 317.07 263.357L1.09306 424.218C0.108709 424.719 -0.283024 425.923 0.2181 426.907C0.719225 427.892 1.92344 428.283 2.90779 427.782L318.935 266.896C321.914 271.189 326.879 274 332.5 274C340.655 274 347.428 268.085 348.762 260.311L737.122 267.514C738.116 275.677 745.07 282 753.5 282C761.721 282 768.538 275.988 769.794 268.12L978.849 271.998L1177.11 298.453C1178.08 306.645 1185.05 313 1193.5 313C1200.43 313 1206.36 308.731 1208.8 302.681L1608.01 355.948C1608.24 364.854 1615.54 372 1624.5 372C1631.96 372 1638.26 367.051 1640.3 360.258L1645.64 360.97L1931.54 427.947C1932.62 428.199 1933.7 427.532 1933.95 426.456C1934.2 425.381 1933.53 424.305 1932.46 424.053L1646.46 357.053L1646.36 357.03L1646.26 357.018L1640.98 356.312C1640.99 356.043 1641 355.772 1641 355.5C1641 346.387 1633.61 339 1624.5 339C1616.6 339 1610 344.55 1608.38 351.962L1209.84 298.784C1209.95 298.038 1210 297.275 1210 296.5C1210 287.387 1202.61 280 1193.5 280C1185.09 280 1178.15 286.289 1177.13 294.419L979.265 268.018L979.152 268.002L979.038 268L769.944 264.122C769.244 255.654 762.149 249 753.5 249C745.06 249 738.1 255.337 737.119 263.513L348.958 256.314C348.351 247.755 341.214 241 332.5 241C323.388 241 316 248.387 316 257.5Z" fill="white"/>
<path d="M317.07 263.357L323.422 275.833L334.619 270.133L330.158 258.386L317.07 263.357ZM1.09306 424.218L-5.2585 411.741L-5.25855 411.741L1.09306 424.218ZM0.2181 426.907L12.6944 420.556L12.6944 420.556L0.2181 426.907ZM2.90779 427.782L9.25925 440.259L9.25936 440.259L2.90779 427.782ZM318.935 266.896L330.437 258.914L323.472 248.876L312.583 254.419L318.935 266.896ZM348.762 260.311L349.022 246.314L336.998 246.091L334.964 257.943L348.762 260.311ZM737.122 267.514L751.02 265.823L749.549 253.742L737.382 253.517L737.122 267.514ZM769.794 268.12L770.053 254.123L757.886 253.897L755.968 265.914L769.794 268.12ZM978.849 271.998L980.701 258.121L979.908 258.015L979.109 258L978.849 271.998ZM1177.11 298.453L1191.02 296.813L1189.74 286.014L1178.97 284.576L1177.11 298.453ZM1208.8 302.681L1210.65 288.804L1199.89 287.368L1195.82 297.433L1208.8 302.681ZM1608.01 355.948L1622 355.575L1621.68 343.649L1609.86 342.071L1608.01 355.948ZM1640.3 360.258L1642.16 346.381L1630.33 344.803L1626.9 356.227L1640.3 360.258ZM1645.64 360.97L1648.83 347.339L1648.17 347.183L1647.49 347.093L1645.64 360.97ZM1931.54 427.947L1928.35 441.578L1928.35 441.578L1931.54 427.947ZM1932.46 424.053L1929.26 437.684L1929.26 437.684L1932.46 424.053ZM1646.46 357.053L1649.65 343.422L1649.65 343.422L1646.46 357.053ZM1646.36 357.03L1649.55 343.399L1648.89 343.244L1648.21 343.153L1646.36 357.03ZM1646.26 357.018L1648.12 343.141L1648.12 343.141L1646.26 357.018ZM1640.98 356.312L1627 355.634L1626.37 368.487L1639.13 370.189L1640.98 356.312ZM1608.38 351.962L1606.53 365.839L1619.31 367.544L1622.06 354.95L1608.38 351.962ZM1209.84 298.784L1195.98 296.864L1194.05 310.801L1207.99 312.661L1209.84 298.784ZM1177.13 294.419L1175.28 308.296L1189.26 310.162L1191.02 296.167L1177.13 294.419ZM979.265 268.018L977.413 281.895L977.413 281.895L979.265 268.018ZM979.152 268.002L981.003 254.125L980.211 254.02L979.411 254.005L979.152 268.002ZM979.038 268L979.297 254.003L979.297 254.003L979.038 268ZM769.944 264.122L755.991 265.276L757.034 277.885L769.684 278.12L769.944 264.122ZM737.119 263.513L736.859 277.511L749.511 277.746L751.019 265.181L737.119 263.513ZM348.958 256.314L334.994 257.306L335.9 270.074L348.699 270.312L348.958 256.314ZM330.158 258.386C330.06 258.129 330 257.838 330 257.5H302C302 261.287 302.697 264.944 303.982 268.327L330.158 258.386ZM7.44462 436.694L323.422 275.833L310.718 250.88L-5.2585 411.741L7.44462 436.694ZM12.6944 420.556C15.7012 426.462 13.3507 433.687 7.44467 436.694L-5.25855 411.741C-13.1333 415.75 -16.2672 425.384 -12.2582 433.259L12.6944 420.556ZM-3.44366 415.306C2.46231 412.299 9.68762 414.65 12.6944 420.556L-12.2582 433.259C-8.24917 441.134 1.38457 444.268 9.25925 440.259L-3.44366 415.306ZM312.583 254.419L-3.44377 415.306L9.25936 440.259L325.287 279.372L312.583 254.419ZM332.5 260C331.661 260 330.912 259.599 330.437 258.914L307.433 274.877C312.916 282.779 322.097 288 332.5 288V260ZM334.964 257.943C334.763 259.11 333.722 260 332.5 260V288C347.588 288 360.092 277.059 362.56 262.68L334.964 257.943ZM737.382 253.517L349.022 246.314L348.502 274.309L736.863 281.512L737.382 253.517ZM753.5 268C752.233 268 751.168 267.045 751.02 265.823L723.225 269.206C725.063 284.309 737.906 296 753.5 296V268ZM755.968 265.914C755.78 267.095 754.733 268 753.5 268V296C768.71 296 781.296 284.881 783.619 270.326L755.968 265.914ZM979.109 258L770.053 254.123L769.534 282.118L978.59 285.995L979.109 258ZM1178.97 284.576L980.701 258.121L976.997 285.875L1175.26 312.33L1178.97 284.576ZM1193.5 299C1192.23 299 1191.16 298.04 1191.02 296.813L1163.21 300.092C1165 315.25 1177.87 327 1193.5 327V299ZM1195.82 297.433C1195.44 298.376 1194.53 299 1193.5 299V327C1206.33 327 1217.27 319.087 1221.78 307.929L1195.82 297.433ZM1609.86 342.071L1210.65 288.804L1206.95 316.558L1606.15 369.825L1609.86 342.071ZM1624.5 358C1623.14 358 1622.04 356.917 1622 355.575L1594.01 356.321C1594.45 372.79 1607.93 386 1624.5 386V358ZM1626.9 356.227C1626.58 357.267 1625.61 358 1624.5 358V386C1638.31 386 1649.94 376.835 1653.71 364.288L1626.9 356.227ZM1647.49 347.093L1642.16 346.381L1638.45 374.135L1643.79 374.847L1647.49 347.093ZM1934.74 414.316L1648.83 347.339L1642.45 374.6L1928.35 441.578L1934.74 414.316ZM1920.32 423.263C1921.83 416.81 1928.28 412.805 1934.74 414.316L1928.35 441.578C1936.95 443.594 1945.56 438.253 1947.58 429.65L1920.32 423.263ZM1929.26 437.684C1922.81 436.172 1918.8 429.716 1920.32 423.263L1947.58 429.65C1949.59 421.046 1944.25 412.437 1935.65 410.422L1929.26 437.684ZM1643.26 370.684L1929.26 437.684L1935.65 410.422L1649.65 343.422L1643.26 370.684ZM1643.17 370.661L1643.26 370.684L1649.65 343.422L1649.55 343.399L1643.17 370.661ZM1644.41 370.895L1644.51 370.907L1648.21 343.153L1648.12 343.141L1644.41 370.895ZM1639.13 370.189L1644.41 370.895L1648.12 343.141L1642.83 342.435L1639.13 370.189ZM1627 355.5C1627 355.547 1627 355.591 1627 355.634L1654.96 356.991C1654.99 356.495 1655 355.998 1655 355.5H1627ZM1624.5 353C1625.88 353 1627 354.119 1627 355.5H1655C1655 338.655 1641.34 325 1624.5 325V353ZM1622.06 354.95C1622.3 353.831 1623.32 353 1624.5 353V325C1609.88 325 1597.7 335.269 1594.7 348.975L1622.06 354.95ZM1207.99 312.661L1606.53 365.839L1610.23 338.085L1211.69 284.907L1207.99 312.661ZM1196 296.5C1196 296.631 1195.99 296.752 1195.98 296.864L1223.71 300.705C1223.9 299.324 1224 297.92 1224 296.5H1196ZM1193.5 294C1194.88 294 1196 295.119 1196 296.5H1224C1224 279.655 1210.34 266 1193.5 266V294ZM1191.02 296.167C1191.17 294.95 1192.24 294 1193.5 294V266C1177.95 266 1165.13 277.628 1163.24 292.672L1191.02 296.167ZM977.413 281.895L1175.28 308.296L1178.98 280.542L981.117 254.141L977.413 281.895ZM977.3 281.879L977.413 281.895L981.117 254.141L981.003 254.125L977.3 281.879ZM978.778 281.998L978.892 282L979.411 254.005L979.297 254.003L978.778 281.998ZM769.684 278.12L978.778 281.998L979.297 254.003L770.203 250.125L769.684 278.12ZM753.5 263C754.804 263 755.886 264.007 755.991 265.276L783.896 262.969C782.601 247.301 769.494 235 753.5 235V263ZM751.019 265.181C751.166 263.957 752.232 263 753.5 263V235C737.888 235 725.034 246.718 723.218 261.845L751.019 265.181ZM348.699 270.312L736.859 277.511L737.378 249.516L349.218 242.317L348.699 270.312ZM332.5 255C333.815 255 334.903 256.023 334.994 257.306L362.923 255.322C361.799 239.487 348.614 227 332.5 227V255ZM330 257.5C330 256.119 331.12 255 332.5 255V227C315.656 227 302 240.655 302 257.5H330Z" fill="#3509CB" mask="url(#path-3-outside-2_3109_14607)"/>
</g>
<g filter="url(#filter2_f_3109_14607)">
<mask id="path-5-outside-3_3109_14607" maskUnits="userSpaceOnUse" x="-7" y="235" width="1948" height="200" fill="black">
<rect fill="white" x="-7" y="235" width="1948" height="200"/>
<path fill-rule="evenodd" clip-rule="evenodd" d="M316 257.5C316 259.562 316.379 261.537 317.07 263.357L1.09306 424.218C0.108709 424.719 -0.283024 425.923 0.2181 426.907C0.719225 427.892 1.92344 428.283 2.90779 427.782L318.935 266.896C321.914 271.189 326.879 274 332.5 274C340.65 274 347.42 268.091 348.76 260.324L737.163 267.822C738.291 275.835 745.176 282 753.5 282C761.606 282 768.346 276.156 769.737 268.451L979.349 272.497L1177.15 298.763C1178.26 306.805 1185.15 313 1193.5 313C1200.32 313 1206.18 308.858 1208.69 302.95L1608.01 355.973C1608.26 364.867 1615.55 372 1624.5 372C1631.96 372 1638.26 367.053 1640.3 360.261L1645.64 360.97L1931.54 427.947C1932.62 428.199 1933.7 427.532 1933.95 426.456C1934.2 425.381 1933.53 424.305 1932.46 424.053L1646.46 357.053L1646.36 357.03L1646.26 357.017L1640.98 356.316C1640.99 356.046 1641 355.774 1641 355.5C1641 346.387 1633.61 339 1624.5 339C1616.59 339 1609.99 344.562 1608.37 351.986L1209.8 299.063C1209.93 298.228 1210 297.372 1210 296.5C1210 287.387 1202.61 280 1193.5 280C1184.99 280 1177.98 286.444 1177.09 294.72L979.764 268.517L979.652 268.503L979.539 268.5L769.968 264.455C769.429 255.829 762.262 249 753.5 249C744.955 249 737.927 255.496 737.085 263.82L348.959 256.327C348.358 247.762 341.219 241 332.5 241C323.388 241 316 248.387 316 257.5Z"/>
</mask>
<path fill-rule="evenodd" clip-rule="evenodd" d="M316 257.5C316 259.562 316.379 261.537 317.07 263.357L1.09306 424.218C0.108709 424.719 -0.283024 425.923 0.2181 426.907C0.719225 427.892 1.92344 428.283 2.90779 427.782L318.935 266.896C321.914 271.189 326.879 274 332.5 274C340.65 274 347.42 268.091 348.76 260.324L737.163 267.822C738.291 275.835 745.176 282 753.5 282C761.606 282 768.346 276.156 769.737 268.451L979.349 272.497L1177.15 298.763C1178.26 306.805 1185.15 313 1193.5 313C1200.32 313 1206.18 308.858 1208.69 302.95L1608.01 355.973C1608.26 364.867 1615.55 372 1624.5 372C1631.96 372 1638.26 367.053 1640.3 360.261L1645.64 360.97L1931.54 427.947C1932.62 428.199 1933.7 427.532 1933.95 426.456C1934.2 425.381 1933.53 424.305 1932.46 424.053L1646.46 357.053L1646.36 357.03L1646.26 357.017L1640.98 356.316C1640.99 356.046 1641 355.774 1641 355.5C1641 346.387 1633.61 339 1624.5 339C1616.59 339 1609.99 344.562 1608.37 351.986L1209.8 299.063C1209.93 298.228 1210 297.372 1210 296.5C1210 287.387 1202.61 280 1193.5 280C1184.99 280 1177.98 286.444 1177.09 294.72L979.764 268.517L979.652 268.503L979.539 268.5L769.968 264.455C769.429 255.829 762.262 249 753.5 249C744.955 249 737.927 255.496 737.085 263.82L348.959 256.327C348.358 247.762 341.219 241 332.5 241C323.388 241 316 248.387 316 257.5Z" fill="white"/>
<path d="M317.07 263.357L319.792 268.704L324.591 266.261L322.679 261.227L317.07 263.357ZM1.09306 424.218L-1.62904 418.871L-1.62906 418.871L1.09306 424.218ZM0.2181 426.907L5.56509 424.185L5.56507 424.185L0.2181 426.907ZM2.90779 427.782L5.62985 433.129L5.62989 433.129L2.90779 427.782ZM318.935 266.896L323.864 263.475L320.879 259.173L316.213 261.549L318.935 266.896ZM348.76 260.324L348.876 254.325L343.723 254.226L342.847 259.304L348.76 260.324ZM737.163 267.822L743.104 266.985L742.391 261.922L737.278 261.823L737.163 267.822ZM769.737 268.451L769.853 262.452L764.741 262.353L763.833 267.385L769.737 268.451ZM979.349 272.497L980.139 266.55L979.803 266.505L979.465 266.499L979.349 272.497ZM1177.15 298.763L1183.1 297.947L1182.48 293.417L1177.94 292.815L1177.15 298.763ZM1208.69 302.95L1209.48 297.002L1204.96 296.402L1203.17 300.603L1208.69 302.95ZM1608.01 355.973L1614 355.804L1613.86 350.697L1608.8 350.025L1608.01 355.973ZM1640.3 360.261L1641.09 354.313L1636.03 353.641L1634.56 358.532L1640.3 360.261ZM1645.64 360.97L1647.01 355.128L1646.72 355.061L1646.43 355.022L1645.64 360.97ZM1931.54 427.947L1930.18 433.789L1930.18 433.789L1931.54 427.947ZM1932.46 424.053L1931.09 429.895L1931.09 429.895L1932.46 424.053ZM1646.46 357.053L1645.09 362.895L1645.09 362.895L1646.46 357.053ZM1646.36 357.03L1647.73 351.188L1647.44 351.121L1647.15 351.083L1646.36 357.03ZM1646.26 357.017L1647.05 351.07L1647.05 351.07L1646.26 357.017ZM1640.98 356.316L1634.99 356.024L1634.72 361.537L1640.19 362.264L1640.98 356.316ZM1608.37 351.986L1607.59 357.934L1613.07 358.662L1614.24 353.258L1608.37 351.986ZM1209.8 299.063L1203.87 298.138L1202.93 304.203L1209.01 305.01L1209.8 299.063ZM1177.09 294.72L1176.31 300.667L1182.4 301.477L1183.06 295.36L1177.09 294.72ZM979.764 268.517L978.974 274.465L978.974 274.465L979.764 268.517ZM979.652 268.503L980.442 262.555L980.106 262.51L979.768 262.504L979.652 268.503ZM979.539 268.5L979.423 274.499L979.423 274.499L979.539 268.5ZM769.968 264.455L763.98 264.829L764.325 270.347L769.852 270.453L769.968 264.455ZM737.085 263.82L736.969 269.819L742.498 269.925L743.054 264.424L737.085 263.82ZM348.959 256.327L342.974 256.747L343.359 262.22L348.844 262.326L348.959 256.327ZM322.679 261.227C322.242 260.076 322 258.823 322 257.5H310C310 260.302 310.515 262.997 311.461 265.487L322.679 261.227ZM3.81516 429.565L319.792 268.704L314.348 258.01L-1.62904 418.871L3.81516 429.565ZM5.56507 424.185C6.56734 426.154 5.78385 428.562 3.81518 429.565L-1.62906 418.871C-5.56643 420.875 -7.13339 425.692 -5.12887 429.629L5.56507 424.185ZM0.18574 422.435C2.15439 421.433 4.56282 422.217 5.56509 424.185L-5.12889 429.629C-3.12437 433.567 1.6925 435.134 5.62985 433.129L0.18574 422.435ZM316.213 261.549L0.185694 422.435L5.62989 433.129L321.657 272.243L316.213 261.549ZM332.5 268C328.928 268 325.771 266.222 323.864 263.475L314.006 270.316C318.058 276.156 324.83 280 332.5 280V268ZM342.847 259.304C341.995 264.243 337.681 268 332.5 268V280C343.62 280 352.845 271.94 354.672 261.344L342.847 259.304ZM737.278 261.823L348.876 254.325L348.644 266.323L737.047 273.821L737.278 261.823ZM753.5 276C748.208 276 743.821 272.079 743.104 266.985L731.221 268.659C732.761 279.592 742.144 288 753.5 288V276ZM763.833 267.385C762.948 272.284 758.652 276 753.5 276V288C764.56 288 773.744 280.027 775.642 269.517L763.833 267.385ZM979.465 266.499L769.853 262.452L769.621 274.45L979.233 278.496L979.465 266.499ZM1177.94 292.815L980.139 266.55L978.559 278.445L1176.36 304.71L1177.94 292.815ZM1193.5 307C1188.19 307 1183.8 303.059 1183.1 297.947L1171.21 299.578C1172.71 310.55 1182.12 319 1193.5 319V307ZM1203.17 300.603C1201.57 304.374 1197.83 307 1193.5 307V319C1202.81 319 1210.79 313.341 1214.21 305.298L1203.17 300.603ZM1608.8 350.025L1209.48 297.002L1207.9 308.898L1607.22 361.92L1608.8 350.025ZM1624.5 366C1618.8 366 1614.16 361.46 1614 355.804L1602.01 356.141C1602.35 368.273 1612.29 378 1624.5 378V366ZM1634.56 358.532C1633.26 362.859 1629.24 366 1624.5 366V378C1634.68 378 1643.26 371.246 1646.05 361.99L1634.56 358.532ZM1646.43 355.022L1641.09 354.313L1639.51 366.209L1644.85 366.917L1646.43 355.022ZM1932.91 422.105L1647.01 355.128L1644.27 366.812L1930.18 433.789L1932.91 422.105ZM1928.11 425.088C1928.61 422.937 1930.76 421.602 1932.91 422.105L1930.18 433.789C1934.48 434.797 1938.78 432.126 1939.79 427.825L1928.11 425.088ZM1931.09 429.895C1928.94 429.391 1927.6 427.239 1928.11 425.088L1939.79 427.825C1940.8 423.523 1938.13 419.219 1933.83 418.211L1931.09 429.895ZM1645.09 362.895L1931.09 429.895L1933.83 418.211L1647.83 351.211L1645.09 362.895ZM1644.99 362.872L1645.09 362.895L1647.83 351.211L1647.73 351.188L1644.99 362.872ZM1645.47 362.965L1645.57 362.978L1647.15 351.083L1647.05 351.07L1645.47 362.965ZM1640.19 362.264L1645.47 362.965L1647.05 351.07L1641.77 350.368L1640.19 362.264ZM1635 355.5C1635 355.677 1635 355.852 1634.99 356.024L1646.97 356.608C1646.99 356.239 1647 355.87 1647 355.5H1635ZM1624.5 345C1630.3 345 1635 349.701 1635 355.5H1647C1647 343.074 1636.93 333 1624.5 333V345ZM1614.24 353.258C1615.26 348.535 1619.48 345 1624.5 345V333C1613.71 333 1604.71 340.588 1602.51 350.715L1614.24 353.258ZM1209.01 305.01L1607.59 357.934L1609.16 346.039L1210.59 293.115L1209.01 305.01ZM1204 296.5C1204 297.061 1203.96 297.608 1203.87 298.138L1215.73 299.987C1215.91 298.847 1216 297.682 1216 296.5H1204ZM1193.5 286C1199.3 286 1204 290.701 1204 296.5H1216C1216 284.074 1205.93 274 1193.5 274V286ZM1183.06 295.36C1183.63 290.1 1188.09 286 1193.5 286V274C1181.89 274 1172.34 282.789 1171.13 294.08L1183.06 295.36ZM978.974 274.465L1176.31 300.667L1177.88 288.772L980.553 262.57L978.974 274.465ZM978.862 274.45L978.974 274.465L980.554 262.57L980.442 262.555L978.862 274.45ZM979.423 274.499L979.536 274.501L979.768 262.504L979.655 262.501L979.423 274.499ZM769.852 270.453L979.423 274.499L979.655 262.501L770.084 258.456L769.852 270.453ZM753.5 255C759.074 255 763.637 259.346 763.98 264.829L775.956 264.08C775.22 252.312 765.45 243 753.5 243V255ZM743.054 264.424C743.589 259.133 748.066 255 753.5 255V243C741.844 243 732.264 251.859 731.115 263.216L743.054 264.424ZM348.844 262.326L736.969 269.819L737.201 257.821L349.075 250.328L348.844 262.326ZM332.5 247C338.046 247 342.592 251.303 342.974 256.747L354.945 255.907C354.124 244.221 344.392 235 332.5 235V247ZM322 257.5C322 251.701 326.701 247 332.5 247V235C320.074 235 310 245.074 310 257.5H322Z" fill="#3509CB" mask="url(#path-5-outside-3_3109_14607)"/>
</g>
<g filter="url(#filter3_df_3109_14607)">
<mask id="path-7-outside-4_3109_14607" maskUnits="userSpaceOnUse" x="-2" y="240" width="1940" height="190" fill="black">
<rect fill="white" x="-2" y="240" width="1940" height="190"/>
<path fill-rule="evenodd" clip-rule="evenodd" d="M316 257.5C316 259.716 316.437 261.831 317.23 263.761L1.09524 424.217C0.110278 424.716 -0.282926 425.92 0.216995 426.905C0.716916 427.89 1.92065 428.283 2.90562 427.783L319.19 267.253C322.193 271.344 327.036 274 332.5 274C340.661 274 347.438 268.076 348.765 260.293L737.121 267.501C738.108 275.67 745.065 282 753.5 282C761.726 282 768.545 275.981 769.795 268.108L979.349 271.998L1177.11 298.405C1178.05 306.62 1185.03 313 1193.5 313C1200.44 313 1206.38 308.712 1208.82 302.64L1608.01 355.944C1608.24 364.852 1615.54 372 1624.5 372C1631.96 372 1638.26 367.051 1640.3 360.257L1645.64 360.97L1933.55 427.449C1934.63 427.697 1935.7 427.026 1935.95 425.95C1936.2 424.874 1935.53 423.8 1934.45 423.551L1646.45 357.051L1646.36 357.03L1646.27 357.018L1640.98 356.312C1640.99 356.043 1641 355.772 1641 355.5C1641 346.387 1633.61 339 1624.5 339C1616.6 339 1610 344.548 1608.38 351.959L1209.85 298.742C1209.95 298.009 1210 297.26 1210 296.5C1210 287.387 1202.61 280 1193.5 280C1185.11 280 1178.18 286.265 1177.14 294.373L979.765 268.018L979.652 268.002L979.538 268L769.943 264.11C769.237 255.648 762.145 249 753.5 249C745.064 249 738.107 255.331 737.12 263.501L348.957 256.296C348.34 247.745 341.208 241 332.5 241C323.388 241 316 248.387 316 257.5Z"/>
</mask>
<path fill-rule="evenodd" clip-rule="evenodd" d="M316 257.5C316 259.716 316.437 261.831 317.23 263.761L1.09524 424.217C0.110278 424.716 -0.282926 425.92 0.216995 426.905C0.716916 427.89 1.92065 428.283 2.90562 427.783L319.19 267.253C322.193 271.344 327.036 274 332.5 274C340.661 274 347.438 268.076 348.765 260.293L737.121 267.501C738.108 275.67 745.065 282 753.5 282C761.726 282 768.545 275.981 769.795 268.108L979.349 271.998L1177.11 298.405C1178.05 306.62 1185.03 313 1193.5 313C1200.44 313 1206.38 308.712 1208.82 302.64L1608.01 355.944C1608.24 364.852 1615.54 372 1624.5 372C1631.96 372 1638.26 367.051 1640.3 360.257L1645.64 360.97L1933.55 427.449C1934.63 427.697 1935.7 427.026 1935.95 425.95C1936.2 424.874 1935.53 423.8 1934.45 423.551L1646.45 357.051L1646.36 357.03L1646.27 357.018L1640.98 356.312C1640.99 356.043 1641 355.772 1641 355.5C1641 346.387 1633.61 339 1624.5 339C1616.6 339 1610 344.548 1608.38 351.959L1209.85 298.742C1209.95 298.009 1210 297.26 1210 296.5C1210 287.387 1202.61 280 1193.5 280C1185.11 280 1178.18 286.265 1177.14 294.373L979.765 268.018L979.652 268.002L979.538 268L769.943 264.11C769.237 255.648 762.145 249 753.5 249C745.064 249 738.107 255.331 737.12 263.501L348.957 256.296C348.34 247.745 341.208 241 332.5 241C323.388 241 316 248.387 316 257.5Z" fill="white"/>
<path d="M317.23 263.761L317.683 264.653L318.505 264.236L318.155 263.382L317.23 263.761ZM1.09524 424.217L0.642648 423.325L0.642646 423.325L1.09524 424.217ZM0.216995 426.905L1.10871 426.453L1.10871 426.453L0.216995 426.905ZM2.90562 427.783L2.45302 426.892L2.45302 426.892L2.90562 427.783ZM319.19 267.253L319.996 266.661L319.494 265.977L318.737 266.361L319.19 267.253ZM348.765 260.293L348.784 259.293L347.924 259.277L347.779 260.125L348.765 260.293ZM737.121 267.501L738.113 267.381L738.009 266.518L737.139 266.502L737.121 267.501ZM769.795 268.108L769.814 267.108L768.944 267.092L768.808 267.951L769.795 268.108ZM979.349 271.998L979.481 271.006L979.425 270.999L979.368 270.998L979.349 271.998ZM1177.11 298.405L1178.1 298.291L1178.01 297.517L1177.24 297.414L1177.11 298.405ZM1208.82 302.64L1208.95 301.648L1208.18 301.545L1207.89 302.267L1208.82 302.64ZM1608.01 355.944L1609.01 355.918L1608.98 355.066L1608.14 354.953L1608.01 355.944ZM1640.3 360.257L1640.44 359.266L1639.59 359.153L1639.35 359.969L1640.3 360.257ZM1645.64 360.97L1645.87 359.996L1645.82 359.985L1645.77 359.979L1645.64 360.97ZM1933.55 427.449L1933.33 428.423L1933.33 428.423L1933.55 427.449ZM1934.45 423.551L1934.68 422.577L1934.68 422.577L1934.45 423.551ZM1646.45 357.051L1646.23 358.026L1646.23 358.026L1646.45 357.051ZM1646.36 357.03L1646.58 356.056L1646.54 356.045L1646.49 356.039L1646.36 357.03ZM1646.27 357.018L1646.4 356.026L1646.4 356.026L1646.27 357.018ZM1640.98 356.312L1639.98 356.263L1639.94 357.181L1640.85 357.303L1640.98 356.312ZM1608.38 351.959L1608.25 352.95L1609.16 353.072L1609.36 352.172L1608.38 351.959ZM1209.85 298.742L1208.86 298.607L1208.72 299.6L1209.72 299.733L1209.85 298.742ZM1177.14 294.373L1177 295.364L1178 295.497L1178.13 294.501L1177.14 294.373ZM979.765 268.018L979.633 269.009L979.633 269.009L979.765 268.018ZM979.652 268.002L979.784 267.011L979.728 267.004L979.67 267.003L979.652 268.002ZM979.538 268L979.556 267.001L979.556 267.001L979.538 268ZM769.943 264.11L768.946 264.193L769.021 265.093L769.924 265.11L769.943 264.11ZM737.12 263.501L737.102 264.501L738.005 264.517L738.113 263.621L737.12 263.501ZM348.957 256.296L347.96 256.368L348.025 257.279L348.939 257.296L348.957 256.296ZM318.155 263.382C317.411 261.569 317 259.584 317 257.5H315C315 259.849 315.464 262.092 316.305 264.141L318.155 263.382ZM1.54784 425.108L317.683 264.653L316.777 262.87L0.642648 423.325L1.54784 425.108ZM1.10871 426.453C0.858755 425.96 1.05535 425.358 1.54784 425.108L0.642646 423.325C-0.834793 424.075 -1.42461 425.88 -0.674721 427.358L1.10871 426.453ZM2.45302 426.892C1.96054 427.142 1.35867 426.945 1.10871 426.453L-0.674723 427.358C0.0751573 428.835 1.88076 429.425 3.35821 428.675L2.45302 426.892ZM318.737 266.361L2.45302 426.892L3.35821 428.675L319.642 268.144L318.737 266.361ZM332.5 273C327.368 273 322.818 270.507 319.996 266.661L318.384 267.844C321.567 272.181 326.704 275 332.5 275V273ZM347.779 260.125C346.533 267.435 340.166 273 332.5 273V275C341.157 275 348.343 268.716 349.751 260.461L347.779 260.125ZM737.139 266.502L348.784 259.293L348.746 261.293L737.102 268.501L737.139 266.502ZM753.5 281C745.577 281 739.041 275.054 738.113 267.381L736.128 267.621C737.176 276.286 744.553 283 753.5 283V281ZM768.808 267.951C767.634 275.347 761.226 281 753.5 281V283C762.225 283 769.457 276.616 770.783 268.265L768.808 267.951ZM979.368 270.998L769.814 267.108L769.777 269.108L979.33 272.997L979.368 270.998ZM1177.24 297.414L979.481 271.006L979.217 272.989L1176.98 299.396L1177.24 297.414ZM1193.5 312C1185.55 312 1178.99 306.007 1178.1 298.291L1176.12 298.519C1177.12 307.234 1184.52 314 1193.5 314V312ZM1207.89 302.267C1205.6 307.973 1200.02 312 1193.5 312V314C1200.87 314 1207.17 309.45 1209.75 303.012L1207.89 302.267ZM1608.14 354.953L1208.95 301.648L1208.69 303.631L1607.87 356.935L1608.14 354.953ZM1624.5 371C1616.08 371 1609.23 364.285 1609.01 355.918L1607.01 355.971C1607.26 365.418 1614.99 373 1624.5 373V371ZM1639.35 359.969C1637.43 366.352 1631.51 371 1624.5 371V373C1632.41 373 1639.1 367.75 1641.26 360.545L1639.35 359.969ZM1645.77 359.979L1640.44 359.266L1640.17 361.248L1645.51 361.961L1645.77 359.979ZM1933.78 426.474L1645.87 359.996L1645.42 361.944L1933.33 428.423L1933.78 426.474ZM1934.97 425.725C1934.85 426.263 1934.31 426.599 1933.78 426.474L1933.33 428.423C1934.94 428.796 1936.55 427.789 1936.92 426.175L1934.97 425.725ZM1934.23 424.526C1934.76 424.65 1935.1 425.187 1934.97 425.725L1936.92 426.175C1937.3 424.561 1936.29 422.95 1934.68 422.577L1934.23 424.526ZM1646.23 358.026L1934.23 424.526L1934.68 422.577L1646.68 356.077L1646.23 358.026ZM1646.13 358.004L1646.23 358.026L1646.68 356.077L1646.58 356.056L1646.13 358.004ZM1646.13 358.009L1646.23 358.021L1646.49 356.039L1646.4 356.026L1646.13 358.009ZM1640.85 357.303L1646.13 358.009L1646.4 356.026L1641.11 355.321L1640.85 357.303ZM1640 355.5C1640 355.756 1639.99 356.011 1639.98 356.263L1641.98 356.36C1641.99 356.075 1642 355.788 1642 355.5H1640ZM1624.5 340C1633.06 340 1640 346.94 1640 355.5H1642C1642 345.835 1634.17 338 1624.5 338V340ZM1609.36 352.172C1610.88 345.211 1617.08 340 1624.5 340V338C1616.12 338 1609.12 343.885 1607.4 351.745L1609.36 352.172ZM1209.72 299.733L1608.25 352.95L1608.51 350.968L1209.98 297.75L1209.72 299.733ZM1209 296.5C1209 297.215 1208.95 297.918 1208.86 298.607L1210.84 298.876C1210.95 298.099 1211 297.305 1211 296.5H1209ZM1193.5 281C1202.06 281 1209 287.94 1209 296.5H1211C1211 286.835 1203.17 279 1193.5 279V281ZM1178.13 294.501C1179.11 286.885 1185.62 281 1193.5 281V279C1184.6 279 1177.25 285.645 1176.14 294.246L1178.13 294.501ZM979.633 269.009L1177 295.364L1177.27 293.382L979.897 267.026L979.633 269.009ZM979.519 268.994L979.633 269.009L979.898 267.026L979.784 267.011L979.519 268.994ZM979.519 269L979.633 269.002L979.67 267.003L979.556 267.001L979.519 269ZM769.924 265.11L979.519 269L979.556 267.001L769.961 263.11L769.924 265.11ZM753.5 250C761.621 250 768.283 256.245 768.946 264.193L770.939 264.027C770.19 255.051 762.669 248 753.5 248V250ZM738.113 263.621C739.04 255.947 745.576 250 753.5 250V248C744.552 248 737.174 254.715 736.128 263.381L738.113 263.621ZM348.939 257.296L737.102 264.501L737.139 262.501L348.976 255.296L348.939 257.296ZM332.5 242C340.68 242 347.38 248.336 347.96 256.368L349.955 256.224C349.3 247.154 341.736 240 332.5 240V242ZM317 257.5C317 248.94 323.94 242 332.5 242V240C322.835 240 315 247.835 315 257.5H317Z" fill="#EB02FF" mask="url(#path-7-outside-4_3109_14607)"/>
</g>
<path fill-rule="evenodd" clip-rule="evenodd" d="M316 257.5C316 259.64 316.408 261.684 317.149 263.56L1.09415 424.217C0.109494 424.718 -0.282975 425.922 0.217547 426.906C0.718069 427.891 1.92205 428.283 2.9067 427.783L319.061 267.075C322.053 271.267 326.958 274 332.5 274C340.658 274 347.433 268.08 348.763 260.303L737.123 267.522C738.12 275.681 745.072 282 753.5 282C761.718 282 768.533 275.993 769.792 268.13L977.849 271.998L1177.13 298.548C1178.13 306.694 1185.08 313 1193.5 313C1200.4 313 1206.3 308.77 1208.77 302.764L1608.01 355.956C1608.25 364.858 1615.54 372 1624.5 372C1631.96 372 1638.26 367.052 1640.3 360.259L1645.64 360.97L1932.55 427.448C1933.63 427.698 1934.7 427.028 1934.95 425.951C1935.2 424.875 1934.53 423.801 1933.45 423.552L1646.45 357.052L1646.36 357.03L1646.26 357.018L1640.98 356.314C1640.99 356.044 1641 355.773 1641 355.5C1641 346.387 1633.61 339 1624.5 339C1616.6 339 1610 344.553 1608.38 351.97L1209.83 298.87C1209.94 298.096 1210 297.305 1210 296.5C1210 287.387 1202.61 280 1193.5 280C1185.06 280 1178.1 286.336 1177.12 294.512L978.265 268.018L978.152 268.002L978.038 268L769.945 264.132C769.249 255.659 762.152 249 753.5 249C745.057 249 738.095 255.342 737.118 263.522L348.958 256.306C348.346 247.75 341.211 241 332.5 241C323.388 241 316 248.387 316 257.5Z" fill="white"/>
</g>
<defs>
<filter id="filter0_f_3109_14607" x="-214.004" y="27" width="2361.51" height="615.004" filterUnits="userSpaceOnUse" color-interpolation-filters="sRGB">
<feFlood flood-opacity="0" result="BackgroundImageFix"/>
<feBlend mode="normal" in="SourceGraphic" in2="BackgroundImageFix" result="shape"/>
<feGaussianBlur stdDeviation="100" result="effect1_foregroundBlur_3109_14607"/>
</filter>
<filter id="filter1_f_3109_14607" x="-114.004" y="127" width="2162.01" height="415.004" filterUnits="userSpaceOnUse" color-interpolation-filters="sRGB">
<feFlood flood-opacity="0" result="BackgroundImageFix"/>
<feBlend mode="normal" in="SourceGraphic" in2="BackgroundImageFix" result="shape"/>
<feGaussianBlur stdDeviation="50" result="effect1_foregroundBlur_3109_14607"/>
</filter>
<filter id="filter2_f_3109_14607" x="-66" y="175" width="2066" height="319.002" filterUnits="userSpaceOnUse" color-interpolation-filters="sRGB">
<feFlood flood-opacity="0" result="BackgroundImageFix"/>
<feBlend mode="normal" in="SourceGraphic" in2="BackgroundImageFix" result="shape"/>
<feGaussianBlur stdDeviation="30" result="effect1_foregroundBlur_3109_14607"/>
</filter>
<filter id="filter3_df_3109_14607" x="-21" y="220" width="1978" height="229" filterUnits="userSpaceOnUse" color-interpolation-filters="sRGB">
<feFlood flood-opacity="0" result="BackgroundImageFix"/>
<feColorMatrix in="SourceAlpha" type="matrix" values="0 0 0 0 0 0 0 0 0 0 0 0 0 0 0 0 0 0 127 0" result="hardAlpha"/>
<feOffset/>
<feGaussianBlur stdDeviation="10"/>
<feComposite in2="hardAlpha" operator="out"/>
<feColorMatrix type="matrix" values="0 0 0 0 0.649738 0 0 0 0 0.110625 0 0 0 0 0.7375 0 0 0 1 0"/>
<feBlend mode="normal" in2="BackgroundImageFix" result="effect1_dropShadow_3109_14607"/>
<feBlend mode="normal" in="SourceGraphic" in2="effect1_dropShadow_3109_14607" result="shape"/>
<feGaussianBlur stdDeviation="2.5" result="effect2_foregroundBlur_3109_14607"/>
</filter>
<clipPath id="clip0_3109_14607">
<rect width="1936" height="648" fill="white"/>
</clipPath>
</defs>
</svg>
